<svg viewBox="0 0 240 240" xmlns:xlink="http://www.w3.org/1999/xlink" xmlns="http://www.w3.org/2000/svg" id="图层_1"><defs><style>.cls-1,.cls-2{fill:#ffc63f;}.cls-1,.cls-4,.cls-5,.cls-6,.cls-7{stroke:#000;stroke-width:2.2px;}.cls-1,.cls-4,.cls-5,.cls-7{stroke-miterlimit:10;}.cls-3{clip-path:url(#clip-path);}.cls-4,.cls-6{fill:none;}.cls-5{fill:#fff;}.cls-6{stroke-linecap:round;stroke-linejoin:round;}.cls-7{fill:#f03e2e;}</style><clipPath id="clip-path"><path d="M129.64,217.8l32.43-85.63a4.44,4.44,0,0,0-4.15-6H93.05a4.45,4.45,0,0,0-4.16,6l32.44,85.63A4.44,4.44,0,0,0,129.64,217.8Z" class="cls-1"></path></clipPath></defs><title>长图总结</title><path d="M129.64,217.8l32.43-85.63a4.44,4.44,0,0,0-4.15-6H93.05a4.45,4.45,0,0,0-4.16,6l32.44,85.63A4.44,4.44,0,0,0,129.64,217.8Z" class="cls-2"></path><g class="cls-3"><rect rx="1.29" height="3.2" width="40.3" y="159.4" x="96.74"></rect><rect rx="1.29" height="3.2" width="40.3" y="175.99" x="123.31"></rect><rect rx="1.29" height="3.2" width="40.3" y="186.83" x="90.74"></rect><rect rx="1.29" height="3.2" width="40.3" y="168.13" x="109.22"></rect></g><path d="M129.64,217.8l32.43-85.63a4.44,4.44,0,0,0-4.15-6H93.05a4.45,4.45,0,0,0-4.16,6l32.44,85.63A4.44,4.44,0,0,0,129.64,217.8Z" class="cls-4"></path><rect rx="4.16" height="37.43" width="91.11" y="103.72" x="79.73" class="cls-1"></rect><path d="M177.51,84.22a46.77,46.77,0,0,0,.5-6.84c0-27.58-24.26-49.94-54.18-49.94S69.64,49.8,69.64,77.38a46.61,46.61,0,0,0,.57,7.23,16.35,16.35,0,1,0,15.07,27.86c.12.12.24.22.36.33a15.75,15.75,0,0,0,23.75,13A15.72,15.72,0,0,0,127,127.24c1.34-.07,2.65-.19,4-.35a15.72,15.72,0,0,0,18.13-1.06,15.76,15.76,0,0,0,18.93-11,16.35,16.35,0,1,0,9.52-30.66Z" class="cls-5"></path><circle r="6.27" cy="57.55" cx="108.08"></circle><circle r="6.27" cy="57.55" cx="138.57"></circle><path d="M133.31,68.55a9.15,9.15,0,0,1-18.3,0" class="cls-6"></path><ellipse ry="2.81" rx="6.72" cy="68.95" cx="98.69" class="cls-7"></ellipse><ellipse ry="2.81" rx="6.72" cy="68.95" cx="148.55" class="cls-7"></ellipse><ellipse transform="translate(5.29 94.71) rotate(-51.24)" ry="1.29" rx="3.65" cy="41.84" cx="101.4"></ellipse><ellipse transform="translate(57.36 149.91) rotate(-81.9)" ry="1.29" rx="3.65" cy="41.91" cx="115.06"></ellipse><ellipse transform="translate(-6.6 40.47) rotate(-17.15)" ry="3.65" rx="1.29" cy="42.12" cx="130.87"></ellipse><ellipse transform="translate(-1.41 77.95) rotate(-30)" ry="3.65" rx="1.29" cy="41.6" cx="144.76"></ellipse></svg>